<svg version="1" xmlns="http://www.w3.org/2000/svg" width="128" height="128" viewBox="0 0 96.000000 96.000000"><path d="M40 2.7C35.9 4 28.3 7.2 23.1 9.8c-9.2 4.6-9.4 4.8-12.7 11.4C6.7 28.5 6.6 29 7.8 29c.5 0 2-2.1 3.3-4.7l2.4-4.7.3 4.7c.4 6.8 2.1 5.8 2.4-1.5l.3-6.3 7-.1c3.9-.1 7.5.1 8.1.3.8.3.6 1.9-.7 5.4-1.1 2.7-1.9 5.4-1.9 5.9 0 1.8 5.4 1 12-1.8l6.5-2.8 6.9 2.8c7.5 3.1 11.6 3.6 11.6 1.4 0-.7-.7-3.3-1.5-5.6S63 17.4 63 17c0-.4 3.6-.6 8-.6l8 .1.1 5.5c.1 3 .1 5.8 0 6.2 0 .5.3.8.9.8.5 0 1-2.4 1-5.3v-5.2l2.8 4.9c1.5 2.7 3.3 5.2 4.1 5.4.7.2-.4-2.8-2.6-6.9-3.8-7.1-4.3-7.6-11.9-11.6-4.3-2.3-11.9-5.4-16.9-7l-9-2.9L40 2.7zm-.2 6c-4.8 4.8-5.9 4.9-7.2.7-.5-1.7.1-2.3 4.1-3.6 7.7-2.4 8-2.1 3.1 2.9zm13.8.5c3 2.9 5.4 5.5 5.4 5.8 0 .4-2.6 1.9-5.8 3.4l-5.8 2.8-4.4-2.3c-7.5-3.7-7.4-3.6-1.3-9.5 3.1-3 5.9-5.4 6.1-5.4.3 0 2.9 2.3 5.8 5.2zM59 6c3.9 1 4.1 1.3 3.5 3.8-.9 3.8-1 3.8-4.8.6-4.3-3.6-6.7-7-4.4-6.1.9.3 3.4 1.1 5.7 1.7zm-27 7.5c0 .8-9.7 1.3-12 .6-.3-.1 1.8-1.4 4.5-2.9 5-2.8 5-2.8 6.2-.7.7 1.1 1.2 2.5 1.3 3zm39.2-2.3c2.6 1.3 4.7 2.5 4.8 2.8 0 .7-11.7.6-12.3 0-.7-.7 1.1-5 2-5 .4 0 2.9 1 5.5 2.2zM44 22.1c0 .4-.6.9-1.2 1.2-.7.3-3.7 1.4-6.6 2.6L30.9 28l.6-2.1c.4-1.2 1.4-3.7 2.1-5.5L35 17l4.5 2.2c2.5 1.2 4.5 2.5 4.5 2.9zm18.4-.1c1 2.8 1.7 5.2 1.5 5.4-.7.5-12.9-4.5-12.9-5.3 0-.6 7.6-4.9 9.1-5 .3-.1 1.3 2.2 2.3 4.9zM79 47.6v7.2l3.4.4c1.9.2 4.3.1 5.3-.3 1.1-.5.1-.8-2.8-.8l-4.7-.1V42h4.4c2.4 0 4.4-.3 4.4-.8 0-.4-2.3-.7-5-.7h-5v7.1zM9.3 48c-1.7 3.9-2.8 7-2.3 7s1.2-.9 1.5-2c.9-3 7.8-2.8 9.9.2 2.4 3.4 1.9.8-.9-5-1.4-2.9-2.5-5.6-2.5-6.2 0-.5-.6-1-1.2-1-.7 0-2.7 3.2-4.5 7zm5.5 1.8c-4.2.7-4.7 0-3-4.2l1.6-4 1.6 4c1.6 3.7 1.6 3.9-.2 4.2zM23.9 41.2c-.6 2.2-.5 7.8.2 7.8.5 0 .9-1.8.9-4s-.2-4-.5-4-.5.1-.6.2zM36 47.9c0 7.7.6 8.2 7 7 3.3-.6 3.3-.6-1.2-.8L37 54l.3-6.5c.1-3.6-.1-6.5-.5-6.5s-.8 3.1-.8 6.9zM48 46.1c0 7 1.9 9.9 6.5 9.9 3.4 0 7.1-3.3 5.8-5.3-.3-.5-1 .2-1.7 1.5-1.2 2.5-5.1 3.5-7.5 1.9-1-.6-1.6-3-1.7-6.6-.2-7.3-1.4-8.5-1.4-1.4zM59.3 45c-.1 2.2.2 4 .6 4 .4 0 .8-1.8.8-4s-.2-4-.6-4c-.4 0-.7 1.8-.8 4zM65.4 43.2c2.9 4 2.9 4.7.2 8.3-3.3 4.3-2.4 4.6 1.1.4l2.6-3.1 2.4 3.1c1.4 1.7 3 3.1 3.6 3.1.9 0 .9-.2.1-.8-.7-.4-3.3-3.5-5.8-7-2.5-3.4-4.9-6.2-5.2-6.2-.4 0 .1 1 1 2.2zM71.7 43.6c-1.1 1.4-1.7 2.8-1.4 3 .3.3 1.5-.9 2.7-2.5 1.2-1.7 1.8-3.1 1.3-3.1-.4 0-1.6 1.2-2.6 2.6z"/><path d="M82 47.8c0 .5.7.9 1.5.9s1.5-.4 1.5-.9c0-.4-.7-.8-1.5-.8s-1.5.4-1.5.8zM86 48.1c0 .5.5.7 1 .4.6-.3 1-.8 1-1.1 0-.2-.4-.4-1-.4-.5 0-1 .5-1 1.1zM23.5 52.2c.1 2 .7 2.3 5.1 2.4 4.5.1 4.6.1.7-.3-3.4-.3-4.3-.8-4.3-2.4 0-1-.4-1.9-.8-1.9-.5 0-.8 1-.7 2.2zM7 67.5c0 .3 1.5 3.6 3.4 7.3 3.3 6.4 3.8 6.9 11.4 10.9 4.4 2.3 12 5.5 16.9 7.1l9 2.9 9.4-3.1c5.2-1.7 12.7-4.9 16.8-7.1 6.7-3.6 7.8-4.6 10.7-10 1.8-3.3 3.3-6.6 3.4-7.3 0-2.3-2-.2-4.5 4.6l-2.4 4.7-.1-5.3c0-2.8-.5-5.2-1-5.2-.6 0-.9.3-.9.7.1.5.1 3.3 0 6.3l-.1 5.5-8 .1c-4.4.1-8-.2-8-.6 0-.4.7-2.7 1.5-5s1.5-4.9 1.5-5.6c0-2.1-4.1-1.7-10.4 1.1-3.1 1.4-6.6 2.5-7.7 2.5-1.1 0-4.6-1.1-7.9-2.5-6-2.5-11-3.3-11-1.6 0 .5.7 2.8 1.5 5.1 2.4 6.7 2.4 6.7-6.2 6.6l-7.8-.1-.3-6.3c-.4-7.5-2.2-8.3-2.2-1l-.1 5.3-2.5-5.3C10 69.4 8.4 67 7.9 67s-.9.2-.9.5zM43.5 73c1.7.6 1.2 1.1-3.2 3.4-2.9 1.4-5.4 2.6-5.6 2.6-.3 0-1-1.9-1.6-4.3-.7-2.3-1.5-4.8-1.7-5.5-.4-.8 1.2-.5 4.8.9 2.9 1.2 6.2 2.4 7.3 2.9zm18.9.6c-.9 2.7-1.7 5-1.9 5.2-.4.5-9.5-4.1-9.5-4.8 0-.7 12.2-5.9 12.8-5.5.1.1-.5 2.4-1.4 5.1zm-9.1 4.1c2.8 1.4 5.4 2.8 5.6 3 .7.5-10.1 11.3-11.2 11.3-.5 0-3.4-2.5-6.3-5.5-3.7-3.7-5-5.7-4.1-6.2 1.3-.8 10-5.2 10.5-5.3.1 0 2.6 1.2 5.5 2.7zm-21.6 4.9c.2.5-.3 1.8-1 2.8-1.2 1.7-1.5 1.7-6-.5-2.6-1.3-4.7-2.6-4.7-2.9 0-1 11.4-.4 11.7.6zm43.7-.5c-.5.9-8.2 4.9-9.3 4.9-1.2 0-3.2-4.8-2-5.2 1.8-.6 11.7-.3 11.3.3zM40 87.6c2.9 3.1 3.7 4.5 2.4 4.1-1-.3-3.8-1.1-6.1-1.8-2.4-.7-4.3-1.3-4.3-1.5 0-1.3 2.1-5.4 2.8-5.4.5 0 2.8 2.1 5.2 4.6zm22.4-2.4c.3 1.3.6 2.6.6 3 0 .8-10.2 3.9-10.8 3.3-.5-.4 8-8.5 8.9-8.5.4 0 .9 1 1.3 2.2z"/></svg>